HIERARCHY
ROOT joint_Root
{
	OFFSET 0.0 0.0 0.0
	CHANNELS 6 Xposition Yposition Zposition Zrotation Xrotation Yrotation 
	JOINT Hips
	{
		OFFSET 4.5925 91.4895 -427.239
		CHANNELS 6 Xposition Yposition Zposition Zrotation Xrotation Yrotation 
		JOINT Spine
		{
			OFFSET 15.7357 0.0 0.0
			CHANNELS 6 Xposition Yposition Zposition Zrotation Xrotation Yrotation 
			JOINT Chest
			{
				OFFSET 8.98455 -0.406207 0.0
				CHANNELS 6 Xposition Yposition Zposition Zrotation Xrotation Yrotation 
				JOINT Neck
				{
					OFFSET 16.3773 0.0 0.0
					CHANNELS 6 Xposition Yposition Zposition Zrotation Xrotation Yrotation 
					JOINT Head
					{
						OFFSET 6.45672 0.0 0.0
						CHANNELS 6 Xposition Yposition Zposition Zrotation Xrotation Yrotation 
						End Site
						{
							OFFSET 0.0 0.0 0.0
						}
					}
				}
				JOINT Shoulder_L
				{
					OFFSET 12.9942 -0.242716 4.98039
					CHANNELS 6 Xposition Yposition Zposition Zrotation Xrotation Yrotation 
					JOINT UpperArm_L
					{
						OFFSET 5.34809 0.0 0.0
						CHANNELS 6 Xposition Yposition Zposition Zrotation Xrotation Yrotation 
						JOINT LowerArm_L
						{
							OFFSET 24.3286 1.87007e-05 0.0
							CHANNELS 6 Xposition Yposition Zposition Zrotation Xrotation Yrotation 
							JOINT Hand_L
							{
								OFFSET 22.2916 0.0 0.0
								CHANNELS 6 Xposition Yposition Zposition Zrotation Xrotation Yrotation 
								End Site
								{
									OFFSET 0.0 0.0 0.0
								}
							}
						}
					}
				}
				JOINT Shoulder_R
				{
					OFFSET 12.9945 -0.242716 -4.98039
					CHANNELS 6 Xposition Yposition Zposition Zrotation Xrotation Yrotation 
					JOINT UpperArm_R
					{
						OFFSET -5.34813 0.0 0.0
						CHANNELS 6 Xposition Yposition Zposition Zrotation Xrotation Yrotation 
						JOINT LowerArm_R
						{
							OFFSET -24.3289 0.000322201 0.0
							CHANNELS 6 Xposition Yposition Zposition Zrotation Xrotation Yrotation 
							JOINT Hand_R
							{
								OFFSET -22.2915 -0.000108084 0.0
								CHANNELS 6 Xposition Yposition Zposition Zrotation Xrotation Yrotation 
								End Site
								{
									OFFSET 0.0 0.0 0.0
								}
							}
						}
					}
				}
			}
		}
		JOINT UpperLeg_L
		{
			OFFSET -2.19248 -6.46944 0.0
			CHANNELS 6 Xposition Yposition Zposition Zrotation Xrotation Yrotation 
			JOINT LowerLeg_L
			{
				OFFSET 39.0811 0.0 -1.23785e-05
				CHANNELS 6 Xposition Yposition Zposition Zrotation Xrotation Yrotation 
				JOINT Foot_L
				{
					OFFSET 40.9854 0.0 -1.26872e-05
					CHANNELS 6 Xposition Yposition Zposition Zrotation Xrotation Yrotation 
					JOINT Toes_L
					{
						OFFSET 11.7543 0.0 0.0
						CHANNELS 6 Xposition Yposition Zposition Zrotation Xrotation Yrotation 
						End Site
						{
							OFFSET 0.0 0.0 0.0
						}
					}
				}
			}
		}
		JOINT UpperLeg_R
		{
			OFFSET -2.19251 6.46944 0.0
			CHANNELS 6 Xposition Yposition Zposition Zrotation Xrotation Yrotation 
			JOINT LowerLeg_R
			{
				OFFSET -39.0811 -0.00228153 -0.0401928
				CHANNELS 6 Xposition Yposition Zposition Zrotation Xrotation Yrotation 
				JOINT Foot_R
				{
					OFFSET -40.9854 0.0 0.0
					CHANNELS 6 Xposition Yposition Zposition Zrotation Xrotation Yrotation 
					JOINT Toes_R
					{
						OFFSET -11.7543 0.0 0.0
						CHANNELS 6 Xposition Yposition Zposition Zrotation Xrotation Yrotation 
						End Site
						{
							OFFSET 0.0 0.0 0.0
						}
					}
				}
			}
		}
	}
}
MOTION
Frames:	6
Frame Time:	0.0333333
0.000000 0.000000 0.000000 0.000000 0.000000 -0.000000 3.464660 91.801100 -1.156480 89.066300 -17.325300 3.238170 15.735700 0.000005 -0.000001 82.895300 84.783900 -79.311600 8.984550 -0.406207 -0.000000 2.642210 -1.449100 7.194010 16.377300 -0.000001 -0.000001 4.622940 0.831950 -5.175740 6.456720 -0.000001 -0.000000 -2.062370 -0.055322 -4.592570 12.994200 -0.242716 4.980390 -84.493400 -10.451700 -62.012500 5.348090 -0.000007 -0.000001 -33.907600 -63.820500 -77.460300 24.328600 0.000019 0.000005 16.414500 12.776600 -53.105900 22.291600 -0.000001 0.000005 30.873700 5.284710 0.496754 12.994500 -0.242716 -4.980390 88.080400 8.020480 -76.493000 -5.348130 -0.000001 -0.000004 -60.563100 20.950500 -2.874320 -24.328900 0.000322 -0.000009 0.895741 2.069880 -23.432200 -22.291500 -0.000108 -0.000004 15.158700 5.395880 -2.804150 -2.192480 -6.469440 -0.000000 -178.033000 -24.980900 -4.044910 39.081100 -0.000007 -0.000012 -0.087720 0.184897 25.381000 40.985400 -0.000006 -0.000013 2.748580 3.964330 -68.204900 11.754300 -0.000000 0.000003 -0.000037 -0.000436 -16.594600 -2.192510 6.469440 -0.000001 175.058000 18.874300 172.498000 -39.081100 -0.002282 -0.040193 -0.084983 0.191733 24.726800 -40.985400 0.000008 0.000006 2.350490 25.560200 -64.117200 -11.754300 -0.000006 -0.000006 -0.001668 -0.024487 -17.568800
0.000000 0.000000 0.000000 0.000000 0.000000 -0.000000 3.263980 91.824000 -1.290910 89.202800 -16.387400 3.266790 15.735700 0.000005 -0.000001 82.087500 84.777400 -78.673500 8.984550 -0.406207 -0.000000 2.637130 -1.589190 6.858030 16.377300 -0.000001 -0.000001 4.561030 0.702888 -5.044070 6.456720 -0.000001 -0.000000 -2.063630 -0.019444 -4.372130 12.994200 -0.242716 4.980390 -84.955600 -9.649420 -62.228400 5.348090 -0.000007 -0.000001 -33.651300 -62.320000 -74.692200 24.328600 0.000019 0.000005 16.330600 10.451700 -58.241100 22.291600 -0.000001 0.000005 30.547300 5.286720 0.441992 12.994500 -0.242716 -4.980390 87.999700 8.231420 -76.291100 -5.348130 -0.000001 -0.000004 -60.672800 20.676700 -3.303420 -24.328900 0.000322 -0.000009 0.813237 1.858740 -23.663600 -22.291500 -0.000108 -0.000004 15.298000 5.398420 -2.886100 -2.192480 -6.469440 -0.000000 -178.051000 -24.529500 -4.163400 39.081100 -0.000007 -0.000012 -0.086370 0.182718 25.300100 40.985400 -0.000006 -0.000013 2.741150 4.462400 -67.997700 11.754300 -0.000000 0.000003 -0.000037 -0.000432 -16.594400 -2.192510 6.469440 -0.000001 175.054000 19.277700 172.562000 -39.081100 -0.002282 -0.040193 -0.086060 0.193689 24.769700 -40.985400 0.000008 0.000006 2.422680 25.023700 -64.205600 -11.754300 -0.000006 -0.000006 -0.001682 -0.024661 -17.575900
0.000000 0.000000 0.000000 0.000000 0.000000 -0.000000 2.997450 91.830200 -1.388290 89.309400 -15.279000 3.363980 15.735700 0.000005 -0.000001 81.523400 84.763900 -78.288600 8.984550 -0.406207 -0.000000 2.648660 -1.686550 6.502310 16.377300 -0.000001 -0.000001 4.403230 0.513597 -4.722330 6.456720 -0.000001 -0.000000 -1.980270 0.064090 -4.107290 12.994200 -0.242716 4.980390 -85.468100 -8.879500 -62.819900 5.348090 -0.000007 -0.000001 -32.908400 -59.908200 -69.965800 24.328600 0.000019 0.000005 16.041400 7.520930 -65.529700 22.291600 -0.000001 0.000005 29.393200 5.280650 0.607319 12.994500 -0.242716 -4.980390 87.920600 8.440070 -76.105200 -5.348130 -0.000001 -0.000004 -60.810500 20.531900 -3.584510 -24.328900 0.000322 -0.000009 0.630665 1.422620 -23.947400 -22.291500 -0.000108 -0.000004 15.523300 5.398630 -2.892850 -2.192480 -6.469440 -0.000000 -177.959000 -23.977100 -4.223870 39.081100 -0.000007 -0.000012 -0.083779 0.176988 25.331100 40.985400 -0.000006 -0.000013 2.719970 5.068930 -67.863700 11.754300 -0.000000 0.000003 -0.000038 -0.000442 -16.594800 -2.192510 6.469440 -0.000001 175.065000 19.538200 172.730000 -39.081100 -0.002282 -0.040193 -0.091005 0.203248 24.893700 -40.985400 0.000008 0.000006 2.487480 24.253400 -64.395200 -11.754300 -0.000006 -0.000006 -0.001672 -0.024536 -17.570800
0.000000 0.000000 0.000000 0.000000 0.000000 -0.000000 2.726610 91.826100 -1.511560 89.410700 -14.072100 3.474490 15.735700 0.000005 -0.000001 81.284300 84.736300 -78.217400 8.984550 -0.406207 -0.000000 2.694540 -1.729340 6.168670 16.377300 -0.000001 -0.000001 4.173840 0.204250 -4.213780 6.456720 -0.000001 -0.000000 -1.960720 0.089279 -4.038250 12.994200 -0.242716 4.980390 -86.110200 -7.929530 -63.763600 5.348090 -0.000007 -0.000001 -31.856800 -56.439000 -63.751700 24.328600 0.000019 0.000005 16.072100 4.649160 -74.287500 22.291600 -0.000001 0.000005 27.778800 5.274240 0.784315 12.994500 -0.242716 -4.980390 87.868500 8.528500 -75.911700 -5.348130 -0.000001 -0.000004 -61.008900 20.531100 -4.005970 -24.328900 0.000322 -0.000009 0.464536 1.051890 -23.876900 -22.291500 -0.000108 -0.000004 15.719200 5.402360 -3.014240 -2.192480 -6.469440 -0.000000 -177.895000 -23.216100 -4.367260 39.081100 -0.000007 -0.000012 -0.082411 0.173167 25.450000 40.985400 -0.000006 -0.000013 2.664520 5.510530 -67.727700 11.754300 -0.000000 0.000003 -0.000036 -0.000423 -16.594000 -2.192510 6.469440 -0.000001 175.096000 19.981400 172.872000 -39.081100 -0.002282 -0.040193 -0.093250 0.206183 25.095300 -40.985400 0.000008 0.000006 2.599410 23.493600 -64.617900 -11.754300 -0.000006 -0.000006 -0.001640 -0.024113 -17.553600
0.000000 0.000000 0.000000 0.000000 0.000000 -0.000000 2.459400 91.826900 -1.635540 89.500400 -12.865300 3.636020 15.735700 0.000005 -0.000001 81.009400 84.678000 -78.110600 8.984550 -0.406207 -0.000000 2.800260 -1.787280 5.835650 16.377300 -0.000001 -0.000001 3.901100 -0.086255 -3.684900 6.456720 -0.000001 -0.000000 -2.115490 0.114075 -3.953430 12.994200 -0.242716 4.980390 -86.849100 -6.740200 -64.873400 5.348090 -0.000007 -0.000001 -30.351500 -51.589700 -56.219100 24.328600 0.000019 0.000005 16.424600 1.946450 -83.427400 22.291600 -0.000001 0.000005 26.623700 5.261170 1.136950 12.994500 -0.242716 -4.980390 87.827100 8.621110 -75.795700 -5.348130 -0.000001 -0.000004 -61.129800 20.830500 -4.397980 -24.328900 0.000322 -0.000009 0.355134 0.805649 -23.852100 -22.291500 -0.000108 -0.000004 15.683300 5.400400 -2.950600 -2.192480 -6.469440 -0.000000 -177.812000 -22.379600 -4.436140 39.081100 -0.000007 -0.000012 -0.081345 0.170307 25.530900 40.985400 -0.000006 -0.000013 2.594220 5.897530 -67.573600 11.754300 -0.000000 0.000003 -0.000031 -0.000373 -16.592100 -2.192510 6.469440 -0.000001 175.091000 20.435300 173.105000 -39.081100 -0.002282 -0.040193 -0.097103 0.213062 25.234300 -40.985400 0.000008 0.000006 2.679050 22.772600 -64.802300 -11.754300 -0.000006 -0.000006 -0.001683 -0.024672 -17.576300
0.000000 0.000000 0.000000 0.000000 0.000000 -0.000000 2.192860 91.821300 -1.765010 89.591600 -11.685200 3.725780 15.735700 0.000005 -0.000001 81.057300 84.633200 -78.361700 8.984550 -0.406207 -0.000000 2.886000 -1.781580 5.430820 16.377300 -0.000001 -0.000001 3.526720 -0.409318 -2.933380 6.456720 -0.000001 -0.000000 -2.277350 0.122878 -3.907250 12.994200 -0.242716 4.980390 -87.673600 -5.265780 -66.126100 5.348090 -0.000007 -0.000001 -29.090300 -45.087700 -48.540200 24.328600 0.000019 0.000005 15.641800 -0.419609 -91.500700 22.291600 -0.000001 0.000005 25.329100 5.269080 0.921458 12.994500 -0.242716 -4.980390 87.779100 8.798370 -75.772900 -5.348130 -0.000001 -0.000004 -61.186900 21.386400 -4.702930 -24.328900 0.000322 -0.000009 0.165893 0.379414 -23.750600 -22.291500 -0.000108 -0.000004 15.717900 5.402270 -3.011520 -2.192480 -6.469440 -0.000000 -177.791000 -21.460200 -4.616160 39.081100 -0.000007 -0.000012 -0.078403 0.163314 25.644500 40.985400 -0.000006 -0.000013 2.497000 6.138490 -67.424300 11.754300 -0.000000 0.000003 -0.000030 -0.000359 -16.591600 -2.192510 6.469440 -0.000001 175.133000 20.829300 173.212000 -39.081100 -0.002282 -0.040193 -0.100855 0.219190 25.418600 -40.985400 0.000008 0.000006 2.754830 21.981600 -64.986600 -11.754300 -0.000006 -0.000006 -0.001731 -0.025294 -17.601600
